/* XPM */
static const char *conn_xpm[] = {
/* columns rows colors chars-per-pixel */
"20 20 51 1 ",
"  c None",
". c #099600",
"X c #099900",
"o c #099C00",
"O c #099D00",
"+ c #0A9F00",
"@ c #0AA000",
"# c #0AA200",
"$ c #0AA300",
"% c #0AA500",
"& c #0BA600",
"* c #0BA700",
"= c #0BA800",
"- c #0BA900",
"; c #0BAA00",
": c #0BAC00",
"> c #0BAD00",
", c #0CAE00",
"< c #0CB200",
"1 c #0CB300",
"2 c #0DB500",
"3 c #0DB701",
"4 c #0EB801",
"5 c #0EB901",
"6 c #0FBC01",
"7 c #0FBE01",
"8 c #0FBE02",
"9 c #10C102",
"0 c #11C302",
"q c #12C703",
"w c #13C803",
"e c #13CA04",
"r c #15CE04",
"t c #16D205",
"y c #17D406",
"u c #18D406",
"i c #18D606",
"p c #19D706",
"a c #1ADA07",
"s c #1DDF09",
"d c #20E40A",
"f c #23E80C",
"g c #25EB0E",
"h c #27EC0F",
"j c #27ED0F",
"k c #2BF011",
"l c #2CF212",
"z c #33F717",
"x c #35F918",
"c c #36F918",
"v c #36F919",
/* pixels */
"                    ",
"                    ",
"  f                 ",
"  sf                ",
"  isl               ",
"  eydz              ",
"  qeyfc             ",
"  qqqilc            ",
"  444qyfc           ",
"  42244eia          ",
"  222222442         ",
"  ::::::::          ",
"  :::::::           ",
"  ######            ",
"  #####             ",
"  +#++              ",
"  +++               ",
"  ++                ",
"  .                 ",
"                    "
};
